<svg xmlns="http://www.w3.org/2000/svg" viewBox="0 0 485 109" width="485" height="109">
	<style>
		tspan { white-space:pre }
		.shp0 { fill: #242b75 } 
		.shp1 { fill: #00bbdf } 
	</style>
	<g id="Layer">
		<g id="Layer">
			<path id="Layer" class="shp0" d="M484.7 43.2C484.7 51 482.4 53.3 476.2 55.2C469.5 57.2 457.6 58.5 450.5 58.5C442.1 58.5 431.6 58 422.7 55.9L422.7 46.9L472 46.9L472 34.6L437.1 34.6C426.6 34.6 422.7 31.7 422.7 21.5L422.7 16.2C422.7 8.1 425.1 5.7 431.6 4C438.2 2.3 449 1.2 456.1 1.2C464.7 1.2 475 1.9 483.9 3.9L483.9 12.9L435.4 12.9L435.4 23.2L470.3 23.2C480.8 23.2 484.7 26 484.7 36.3L484.7 43.2L484.7 43.2Z" />
			<path id="Layer" class="shp0" d="M400.7 55.8C390.5 57.8 380.2 58.4 370.2 58.4C360.2 58.4 349.8 57.8 339.5 55.8L339.5 3.8C349.7 1.8 360.1 1.1 370 1.1C380 1.1 390.1 1.7 400.3 3.8L400.3 13L354.1 13L354.1 23.4L384.2 23.4L384.2 34.2L354.1 34.2L354.1 46.5L400.5 46.5L400.5 55.8L400.7 55.8Z" />
			<path id="Layer" class="shp0" d="M321.9 55.8C312.7 57.8 303.5 58.4 294.6 58.4C285.7 58.4 276.3 57.9 267.1 55.8L267.1 2.4L281.8 2.4L281.8 45.9L321.9 45.9L321.9 55.8Z" />
			<path id="Layer" class="shp0" d="M249.5 56.2C244.6 57.6 238.1 58.1 233.3 58.2L210.6 12.4L209.3 12.4L186.7 58.2C181.9 58.1 176.2 57.6 171.3 56.2L200 2.4L220.5 2.4L249.5 56.2Z" />
			<path id="Layer" class="shp1" d="M219.6 42.5C219.6 47.8 215.3 52 210 52C204.7 52 200.5 47.7 200.5 42.5C200.5 37.2 204.8 33 210 33C215.3 33 219.6 37.2 219.6 42.5Z" />
			<path id="Layer" class="shp0" d="M153.6 56.2C148.9 57.6 143.9 58 138.9 58.1L138.9 34.8L102.4 34.8L102.4 58.1C97.4 58 92.4 57.5 87.7 56.2L87.7 3.4C92.4 2 97.4 1.6 102.4 1.5L102.4 24L138.9 24L138.9 1.5C143.9 1.6 148.9 2.1 153.6 3.4L153.6 56.2Z" />
			<path id="Layer" class="shp0" d="M67.1 13.2L41.3 13.2L41.3 57.2L26.7 57.2L26.7 13.2L0.9 13.2L0.9 3.8C12 1.8 23.2 1.1 34 1.1C44.8 1.1 56 1.7 67.1 3.8L67.1 13.2Z" />
		</g>
		<g id="Layer">
			<g id="Layer">
				<path id="Layer" fill-rule="evenodd" class="shp1" d="M18.1 78C19.5 79 20.2 80.9 20.2 83.5C20.2 87.1 19.2 88.7 16.5 89.2L16.5 89.3C19.6 89.7 20.7 91.5 20.7 95.2C20.7 97.8 20 99.6 18.6 100.6C17.2 101.6 15 102.1 11.8 102.1C7.9 102.1 4.7 102 1.9 101.8C1.6 101.8 1.4 101.6 1.4 101.3L1.4 77.3C1.4 76.9 1.5 76.9 1.9 76.8C4.5 76.6 7.6 76.4 11 76.4C14.4 76.5 16.7 77 18.1 78ZM6.7 80.9L6.7 87.4L10 87.4C11.9 87.4 13.3 87.2 13.9 86.8C14.6 86.4 14.9 85.5 14.9 84.2C14.9 81.6 13.7 80.9 10.5 80.9L6.7 80.9ZM6.7 91.1L6.7 97.6L11.6 97.6C14.5 97.6 15.6 96.8 15.6 94.5C15.6 91.9 14.4 91.1 11.7 91.1L6.7 91.1Z" />
				<path id="Layer" class="shp1" d="M39.6 83.6C39.9 83.6 40.1 83.8 40.1 84.1L40.1 101C40.1 101.4 40 101.5 39.6 101.6C37.7 102 35.1 102.2 31.8 102.2C28.5 102.2 26.8 101.9 25.5 100.8C24.2 99.6 23.9 97.8 23.9 94.4L23.9 84.3C23.9 84 24.1 83.8 24.4 83.8L28.3 83.8C28.6 83.8 28.8 84 28.8 84.3L28.8 93.1C28.8 94.7 28.9 95.8 29.1 96.5C29.5 97.8 30.1 98 32.3 98L35.2 98L35.2 84.2C35.2 83.9 35.4 83.7 35.7 83.7L39.6 83.7L39.6 83.6Z" />
				<path id="Layer" class="shp1" d="M49.2 78.6C49.2 80.3 48.2 81.2 46.4 81.2C44.6 81.2 43.5 80.2 43.5 78.6C43.5 76.9 44.5 76 46.4 76C48.2 75.9 49.2 76.9 49.2 78.6ZM48.3 83.6C48.6 83.6 48.8 83.8 48.8 84.1L48.8 101.4C48.8 101.8 48.6 101.9 48.3 101.9L44.4 101.9C44.1 101.9 43.9 101.7 43.9 101.4L43.9 84.1C43.9 83.8 44.1 83.6 44.4 83.6L48.3 83.6Z" />
				<path id="Layer" class="shp1" d="M57.1 76.7C57.4 76.7 57.6 76.9 57.6 77.2L57.6 101.4C57.6 101.8 57.4 101.9 57.1 101.9L53.2 101.9C52.9 101.9 52.7 101.7 52.7 101.4L52.7 77.2C52.7 76.9 52.9 76.7 53.2 76.7L57.1 76.7Z" />
				<path id="Layer" fill-rule="evenodd" class="shp1" d="M77.3 77.2L77.3 100.7C77.3 101.2 77.1 101.5 76.6 101.5C74 101.9 71.6 102.1 69.4 102.1C66 102.1 63.7 101.5 62.6 100.2C61.5 99 60.9 96.5 60.9 92.8C60.9 89.1 61.4 86.7 62.4 85.4C63.4 84.1 65.4 83.5 68.4 83.5C69.9 83.5 71.2 83.6 72.4 83.7L72.4 77.2C72.4 76.8 72.6 76.7 72.9 76.7L76.8 76.7C77.1 76.7 77.3 76.9 77.3 77.2ZM69.5 87.7C67.9 87.7 66.9 88 66.4 88.6C65.9 89.2 65.7 90.6 65.7 92.7C65.7 94.8 65.9 96.1 66.3 96.8C66.7 97.5 67.7 97.8 69.2 97.8C70.4 97.8 71.4 97.7 72.3 97.6L72.3 87.7L69.5 87.7Z" />
				<path id="Layer" class="shp1" d="M86.4 78.6C86.4 80.3 85.4 81.2 83.6 81.2C81.8 81.2 80.7 80.2 80.7 78.6C80.7 76.9 81.7 76 83.6 76C85.4 75.9 86.4 76.9 86.4 78.6ZM85.5 83.6C85.8 83.6 86 83.8 86 84.1L86 101.4C86 101.8 85.8 101.9 85.5 101.9L81.6 101.9C81.3 101.9 81.1 101.7 81.1 101.4L81.1 84.1C81.1 83.8 81.3 83.6 81.6 83.6L85.5 83.6Z" />
				<path id="Layer" class="shp1" d="M104.4 84.9C105.7 86.1 106 87.9 106 91.3L106 101.4C106 101.8 105.8 101.9 105.5 101.9L101.6 101.9C101.3 101.9 101.1 101.7 101.1 101.4L101.1 92.6C101.1 90.2 101.1 89.1 100.4 88.4C99.8 87.7 99.3 87.7 97.6 87.7L94.6 87.7L94.6 101.4C94.6 101.8 94.4 101.9 94.1 101.9L90.2 101.9C89.9 101.9 89.7 101.7 89.7 101.4L89.7 84.5C89.7 84.1 89.9 84.1 90.2 84C91.9 83.6 94.4 83.4 98 83.4C101.4 83.5 103.1 83.7 104.4 84.9Z" />
				<path id="Layer" fill-rule="evenodd" class="shp1" d="M125 84.1C125.5 84.2 125.7 84.4 125.7 84.9L125.7 101.5C125.7 103.6 125.5 104.9 124.9 106.1C124.1 107.9 121.9 108.6 117.7 108.6C115.4 108.6 113.4 108.4 111.7 108.1C111.4 108.1 111.2 107.9 111.2 107.6L111.2 105.1C111.2 104.8 111.4 104.6 111.7 104.6L117.3 104.6C120.1 104.6 120.9 104 120.9 101.8L120.9 101.6C119.6 101.8 118.3 102 116.9 102C113.9 102 111.9 101.3 110.9 100C109.9 98.7 109.4 96.1 109.4 92.4C109.4 88.8 110 86.4 111.1 85.2C112.2 84 114.5 83.4 117.9 83.4C120.3 83.5 122.7 83.7 125 84.1ZM120.8 87.7L117.6 87.7C116.1 87.7 115.2 88 114.7 88.7C114.3 89.4 114.1 90.7 114.1 92.8C114.1 94.9 114.3 96.3 114.8 97C115.3 97.6 116.3 97.9 117.9 97.9C119.1 97.9 120.1 97.8 120.8 97.7L120.8 87.7Z" />
				<path id="Layer" fill-rule="evenodd" class="shp1" d="M149.2 84.9C150.3 85.8 150.9 87.2 150.9 89.1L150.9 100.4C150.9 100.9 150.7 101.2 150.2 101.4C148.2 101.9 145.7 102.1 142.8 102.1C140.1 102.1 138.7 102 137.3 101.2C135.9 100.4 135.3 98.9 135.3 96.4C135.3 94.3 135.9 92.9 136.9 92.2C138 91.4 139.7 91.1 142 91.1L146.1 91.1L146.1 89.9C146.1 88.4 145.1 87.6 143 87.6L137.1 87.6C136.7 87.6 136.6 87.5 136.6 87.1L136.6 84.4C136.6 84 136.7 84 137.1 83.9C138.8 83.6 140.7 83.4 143 83.4C146.1 83.5 148.1 83.9 149.2 84.9ZM146.1 94.2L142.3 94.2C140.6 94.2 140 94.7 140 96.2C140 97.7 140.7 98.2 142.8 98.2C144.2 98.2 145.3 98.1 146.1 97.9L146.1 94.2Z" />
				<path id="Layer" class="shp1" d="M172 76.8C172.4 76.9 172.5 77.1 172.5 77.4L172.5 80.1C172.5 80.5 172.3 80.6 171.9 80.6L169.3 80.6C168 80.6 167.5 80.8 167.5 81.9L167.5 83.6L171.5 83.6C171.8 83.6 172 83.8 171.9 84.2L171.4 86.9C171.3 87.2 171.1 87.4 170.8 87.4L167.5 87.4L167.5 101.4C167.5 101.8 167.3 101.9 167 101.9L163.1 101.9C162.8 101.9 162.6 101.7 162.6 101.4L162.6 87.4L160.5 87.4C160.1 87.4 159.9 87.2 159.9 86.9L159.9 84.1C159.9 83.8 160.1 83.6 160.5 83.6L162.6 83.6L162.6 81C162.6 79 163.2 77.8 164.4 77.1C165.6 76.5 166.7 76.3 168.3 76.3C169.7 76.5 170.9 76.6 172 76.8Z" />
				<path id="Layer" class="shp1" d="M189.9 83.6C190.2 83.6 190.4 83.8 190.4 84.1L190.4 101C190.4 101.4 190.3 101.5 189.9 101.6C188 102 185.4 102.2 182.1 102.2C178.8 102.2 177.1 101.9 175.8 100.8C174.5 99.6 174.2 97.8 174.2 94.4L174.2 84.3C174.2 84 174.4 83.8 174.7 83.8L178.6 83.8C178.9 83.8 179.1 84 179.1 84.3L179.1 93.1C179.1 94.7 179.2 95.8 179.4 96.5C179.8 97.8 180.4 98 182.6 98L185.5 98L185.5 84.2C185.5 83.9 185.7 83.7 186 83.7L189.9 83.7L189.9 83.6Z" />
				<path id="Layer" class="shp1" d="M199.6 78.6C200 78.5 200.1 78.7 200.1 79.1L200.1 83.8L203.1 83.8C203.5 83.8 203.7 84 203.7 84.3L203.7 86.9C203.7 87.2 203.5 87.4 203.1 87.4L200.1 87.4L200.1 96.3C200.1 97.6 200.6 98 202 98L203.3 98C203.7 98 203.9 98.2 203.9 98.5L203.9 101.3C203.9 101.7 203.7 101.9 203.4 101.9C202.4 102.1 201.5 102.2 200.6 102.2C199.2 102.2 198.6 102.2 197.5 101.9C196 101.5 195.3 100.5 195.2 98L195.2 87.5L193.3 87.5C192.9 87.5 192.8 87.3 192.8 87L192.8 84.4C192.8 84.1 193 83.9 193.3 83.9L195.2 83.9L195.2 80.3C195.2 80 195.4 79.8 195.7 79.8L199.6 78.6Z" />
				<path id="Layer" class="shp1" d="M222.2 83.6C222.5 83.6 222.7 83.8 222.7 84.1L222.7 101C222.7 101.4 222.6 101.5 222.2 101.6C220.3 102 217.7 102.2 214.4 102.2C211.1 102.2 209.4 101.9 208.1 100.8C206.8 99.6 206.5 97.8 206.5 94.4L206.5 84.3C206.5 84 206.7 83.8 207 83.8L210.9 83.8C211.2 83.8 211.4 84 211.4 84.3L211.4 93.1C211.4 94.7 211.5 95.8 211.7 96.5C212.1 97.8 212.7 98 214.9 98L217.8 98L217.8 84.2C217.8 83.9 218 83.7 218.3 83.7L222.2 83.7L222.2 83.6Z" />
				<path id="Layer" class="shp1" d="M236.7 83.8C237.1 83.9 237.2 84.1 237.2 84.5L237.2 87.2C237.2 87.5 237 87.7 236.6 87.7L233.5 87.7C231.7 87.7 231.2 88 231.2 89.4L231.2 101.5C231.2 101.9 231 102 230.7 102L226.8 102C226.5 102 226.3 101.8 226.3 101.5L226.3 88.2C226.3 86.6 226.8 85.5 227.5 84.8C228.7 83.8 230.4 83.6 232.2 83.6C234.2 83.5 235.6 83.6 236.7 83.8Z" />
				<path id="Layer" fill-rule="evenodd" class="shp1" d="M253.6 85.3C254.7 86.5 255.2 88.9 255.2 92.5L255.2 93.5C255.2 94.2 255 94.4 254.2 94.4L244 94.4C244 95.8 244.3 96.8 244.8 97.2C245.3 97.6 246.3 97.9 247.7 97.9L253.5 97.9C253.8 97.9 254 98.1 254 98.4L254 101.1C254 101.4 253.8 101.6 253.5 101.6C252 101.9 250 102.1 247.3 102.1C244 102.1 241.8 101.5 240.7 100.2C239.6 99 239.1 96.5 239.1 92.8C239.1 89 239.7 86.6 240.7 85.4C241.8 84.2 244 83.5 247.3 83.5C250.5 83.5 252.6 84.1 253.6 85.3ZM243.9 91.3L250.4 91.3C250.4 88.5 249.6 87.7 247.2 87.7C244.8 87.7 244 88.4 243.9 91.3Z" />
				<path id="Layer" class="shp0" d="M289 84.1C289.4 84.1 289.4 84.2 289.4 84.6L286.5 98.4C286.1 100 285.7 101 285.3 101.5C284.9 101.9 284 102.1 282.7 102.1C281.3 102.1 280.4 101.9 280.1 101.5C279.7 101.1 279.3 100.1 279 98.4L276.9 89.3L274.8 98.4C274.4 100.1 274 101.1 273.7 101.5C273.3 101.9 272.5 102.1 271.1 102.1C269.8 102.1 268.9 101.9 268.5 101.5C268.1 101.1 267.7 100 267.3 98.4L264.4 84.6C264.4 84.2 264.4 84.1 264.8 84.1L267.2 84.1C267.4 84.1 267.5 84.3 267.6 84.6L270 98C270.3 99.1 270.4 99.2 270.9 99.2C271.5 99.2 271.5 99.1 271.8 98L275 85.1C275.1 84.7 275.2 84.6 275.5 84.6L278.2 84.6C278.4 84.6 278.6 84.8 278.7 85.1L281.9 98C282.2 99.1 282.2 99.2 282.8 99.2C283.3 99.2 283.4 99 283.7 98L286.4 84.6C286.5 84.2 286.6 84.1 286.8 84.1L289 84.1Z" />
				<path id="Layer" fill-rule="evenodd" class="shp0" d="M305.3 85.6C306.2 86.7 306.8 89 306.8 92.5L306.8 93.4C306.8 94.1 306.6 94.3 305.6 94.3L295.2 94.3C295.2 96.3 295.5 97.6 296.1 98.3C296.7 99 297.8 99.3 299.6 99.3L305 99.3C305.3 99.3 305.5 99.5 305.5 99.8L305.5 101.2C305.5 101.5 305.3 101.7 305 101.7C303.6 101.9 301.7 102 299.5 102C296.5 102 294.4 101.4 293.5 100.2C292.6 99 292.1 96.6 292.1 92.9C292.1 89.2 292.6 86.8 293.5 85.6C294.4 84.4 296.5 83.8 299.5 83.8C302.4 83.9 304.4 84.5 305.3 85.6ZM296.1 87.7C295.5 88.4 295.3 89.8 295.2 91.8L303.7 91.8C303.7 89.7 303.4 88.3 302.9 87.6C302.4 86.9 301.3 86.6 299.6 86.6C297.8 86.6 296.7 87 296.1 87.7Z" />
				<path id="Layer" class="shp0" d="M329.8 84.2C330.1 84.2 330.3 84.4 330.3 84.8L330.3 86.2C330.3 86.5 330.1 86.7 329.8 86.7L324.9 86.7C323 86.7 321.8 87.1 321.2 87.9C320.7 88.7 320.4 90.4 320.4 93.1C320.4 95.7 320.7 97.4 321.2 98.2C321.7 99 322.9 99.4 324.9 99.4L329.8 99.4C330.1 99.4 330.3 99.6 330.3 99.9L330.3 101.3C330.3 101.6 330.1 101.8 329.8 101.9C328.4 102.1 326.7 102.2 324.8 102.2C321.5 102.2 319.8 101.8 318.6 100.4C317.5 99 317.2 97 317.2 93.2C317.2 89.4 317.5 87.4 318.6 86C319.8 84.5 321.5 84.1 324.8 84.1C326.7 83.9 328.4 84 329.8 84.2Z" />
				<path id="Layer" fill-rule="evenodd" class="shp0" d="M346.7 89L346.7 100.4C346.7 100.9 346.5 101.2 346.1 101.3C344.8 101.8 342.4 102 338.9 102C336.6 102 335 101.6 334 101C333.1 100.3 332.6 98.9 332.6 96.8C332.6 93 334.5 91.8 338.4 91.8L343.7 91.8L343.7 89.6C343.7 87.5 342.5 86.7 339.5 86.7L334.6 86.7C334.2 86.7 334.1 86.6 334.1 86.2L334.1 84.9C334.1 84.5 334.2 84.5 334.6 84.4C336.1 84.1 337.8 84 339.5 84C344.4 83.9 346.7 85.5 346.7 89ZM338.4 94.3C336.5 94.3 335.7 95 335.7 96.7C335.7 98.8 336.7 99.3 339.5 99.3C341.3 99.3 342.7 99.2 343.7 98.9L343.7 94.3L338.4 94.3Z" />
				<path id="Layer" class="shp0" d="M362 84.1C362.8 84.2 363.6 84.6 364.3 85.1C365.6 86.1 365.9 88 365.9 91.5L365.9 101.4C365.9 101.7 365.7 101.9 365.3 101.9L363.2 101.9C362.9 101.9 362.7 101.7 362.7 101.4L362.7 91.8C362.7 89.8 362.5 88.6 362.2 87.9C362 87.5 361.8 87.2 361.4 87.1C360.6 86.7 360.1 86.7 358.6 86.7L354.1 86.7L354.1 101.5C354.1 101.8 353.9 102 353.6 102L351.4 102C351.1 102 350.9 101.8 350.9 101.5L350.9 85C350.9 84.6 351.1 84.5 351.4 84.5C353.2 84.1 355.5 84 358.2 84C359.9 83.9 361.2 84 362 84.1Z" />
				<path id="Layer" fill-rule="evenodd" class="shp0" d="M390.7 89L390.7 100.4C390.7 100.9 390.5 101.2 390.1 101.3C388.8 101.8 386.4 102 382.9 102C380.6 102 379 101.6 378 101C377.1 100.3 376.6 98.9 376.6 96.8C376.6 93 378.5 91.8 382.4 91.8L387.7 91.8L387.7 89.6C387.7 87.5 386.5 86.7 383.5 86.7L378.6 86.7C378.2 86.7 378.1 86.6 378.1 86.2L378.1 84.9C378.1 84.5 378.2 84.5 378.6 84.4C380.1 84.1 381.8 84 383.5 84C388.4 83.9 390.7 85.5 390.7 89ZM382.4 94.3C380.5 94.3 379.7 95 379.7 96.7C379.7 98.8 380.7 99.3 383.5 99.3C385.3 99.3 386.7 99.2 387.7 98.9L387.7 94.3L382.4 94.3Z" />
				<path id="Layer" class="shp0" d="M397.7 77.2C398 77.2 398.2 77.4 398.2 77.7L398.2 101.4C398.2 101.7 398 101.9 397.7 101.9L395.5 101.9C395.2 101.9 395 101.7 395 101.4L395 77.7C395 77.4 395.2 77.2 395.5 77.2L397.7 77.2Z" />
				<path id="Layer" class="shp0" d="M405.4 77.2C405.7 77.2 405.9 77.4 405.9 77.7L405.9 101.4C405.9 101.7 405.7 101.9 405.4 101.9L403.2 101.9C402.9 101.9 402.7 101.7 402.7 101.4L402.7 77.7C402.7 77.4 402.9 77.2 403.2 77.2L405.4 77.2Z" />
				<path id="Layer" class="shp0" d="M421.2 79.1C421.6 79 421.8 79.1 421.8 79.5L421.8 84L425.2 84C425.6 84 425.7 84.2 425.7 84.5L425.7 86C425.7 86.3 425.5 86.5 425.2 86.5L421.8 86.5L421.8 97.5C421.8 98.9 422.2 99.3 423.9 99.3L425.5 99.3C425.9 99.3 426 99.5 426 99.8L426 101.4C426 101.7 425.8 101.9 425.5 101.9C425 102 424.4 102.1 423.7 102.1C422.4 102.1 422 102.1 420.9 101.8C419.5 101.4 418.8 100.6 418.6 98.3L418.6 86.5L416.8 86.5C416.5 86.5 416.3 86.3 416.3 86L416.3 84.5C416.3 84.2 416.5 84 416.8 84L418.6 84L418.6 80.1C418.6 79.8 418.7 79.6 419 79.6L421.2 79.1Z" />
				<path id="Layer" class="shp0" d="M437.6 84.3C437.9 84.4 438.1 84.6 438.1 84.9L438.1 86.3C438.1 86.7 437.9 86.8 437.6 86.8L434.8 86.8C432.5 86.8 432 87.2 432 88.6L432 101.6C432 101.9 431.8 102.1 431.5 102.1L429.4 102.1C429.1 102.1 428.9 101.9 428.9 101.6L428.9 87.9C428.9 86.5 429.5 85.5 430.1 85C430.5 84.7 430.9 84.5 431.4 84.4C432.4 84.1 433 84.1 434 84.1C435.7 83.9 436.9 84 437.6 84.3Z" />
				<path id="Layer" class="shp0" d="M455.1 84.1C455.4 84.1 455.6 84.3 455.6 84.6L455.6 101.1C455.6 101.5 455.4 101.5 455.1 101.6C453.3 102 451 102.1 448.3 102.1C446.7 102.1 445.5 102 444.6 101.9C443.8 101.7 443 101.4 442.3 100.9C441 99.8 440.7 98 440.7 94.5L440.7 84.6C440.7 84.3 440.9 84.1 441.3 84.1L443.4 84.1C443.7 84.1 443.9 84.3 443.9 84.6L443.9 94.2C443.9 96.7 444 98 444.8 98.6C445.6 99.3 446.2 99.3 448 99.3L452.5 99.3L452.5 84.5C452.5 84.2 452.7 84 453 84L455.1 84L455.1 84.1Z" />
				<path id="Layer" class="shp0" d="M471.1 84.2C471.4 84.2 471.6 84.4 471.6 84.7L471.6 86.1C471.6 86.4 471.4 86.6 471.1 86.6L465 86.6C463.4 86.6 462.6 87.2 462.6 88.3L462.6 88.7C462.6 89.7 463.3 90.5 464.6 91L468.9 92.7C471.6 93.7 472.2 95.1 472.2 97.3L472.2 97.7C472.2 99.4 471.7 100.6 470.7 101.2C469.7 101.8 468 102.1 465.6 102.1C463.3 102.1 461.3 102 459.6 101.8C459.3 101.8 459.1 101.6 459.1 101.3L459.1 99.9C459.1 99.6 459.3 99.4 459.6 99.4L465.6 99.4C468.2 99.4 469 99.1 469 97.7L469 97.3C469 96.3 468.5 95.7 467.1 95.1L462.5 93.3C460.4 92.5 459.4 91 459.4 88.6L459.4 88C459.4 86.3 460.1 85.1 461.4 84.6C462.7 84.1 464 83.9 466 83.9C467.8 83.9 469.5 84 471.1 84.2Z" />
				<path id="Layer" class="shp0" d="M479.3 79.1C479.7 79 479.9 79.1 479.9 79.5L479.9 84L483.3 84C483.7 84 483.8 84.2 483.8 84.5L483.8 86C483.8 86.3 483.6 86.5 483.3 86.5L479.9 86.5L479.9 97.5C479.9 98.9 480.3 99.3 482 99.3L483.6 99.3C484 99.3 484.1 99.5 484.1 99.8L484.1 101.4C484.1 101.7 483.9 101.9 483.6 101.9C483.1 102 482.5 102.1 481.8 102.1C480.5 102.1 480.1 102.1 479 101.8C477.6 101.4 476.9 100.6 476.7 98.3L476.7 86.5L474.9 86.5C474.6 86.5 474.4 86.3 474.4 86L474.4 84.5C474.4 84.2 474.6 84 474.9 84L476.7 84L476.7 80.1C476.7 79.8 476.8 79.6 477.1 79.6L479.3 79.1Z" />
			</g>
		</g>
	</g>
</svg>